<?xml version="1.0" standalone="no"?><!DOCTYPE svg PUBLIC "-//W3C//DTD SVG 1.1//EN" "http://www.w3.org/Graphics/SVG/1.1/DTD/svg11.dtd"><svg t="1646373362989" class="icon" viewBox="0 0 1024 1024" version="1.1" xmlns="http://www.w3.org/2000/svg" p-id="25576" xmlns:xlink="http://www.w3.org/1999/xlink" width="128" height="128"><defs><style type="text/css"></style></defs><path d="M752.64 112.64h-460.8c-104.96 0-192 87.04-192 192v547.84c0 30.72 15.36 58.88 40.96 76.8 15.36 10.24 30.72 12.8 48.64 12.8 12.8 0 25.6-2.56 38.4-7.68l245.76-115.2c30.72-15.36 66.56-15.36 97.28 0l245.76 115.2c28.16 12.8 58.88 10.24 87.04-5.12 25.6-15.36 40.96-46.08 40.96-76.8V304.64c0-104.96-84.48-192-192-192z m115.2 742.4c0 5.12-2.56 10.24-5.12 10.24-2.56 2.56-7.68 2.56-12.8 0l-245.76-115.2c-25.6-12.8-53.76-17.92-81.92-17.92s-56.32 5.12-81.92 17.92l-245.76 115.2c-5.12 2.56-10.24 0-12.8 0-2.56-2.56-5.12-5.12-5.12-10.24V304.64c0-64 51.2-115.2 115.2-115.2h460.8c64 0 115.2 51.2 115.2 115.2v550.4z" p-id="25577" fill="#dbdbdb"></path><path d="M642.56 437.76h-89.6v-89.6c0-20.48-17.92-38.4-38.4-38.4s-38.4 17.92-38.4 38.4v89.6h-89.6c-20.48 0-38.4 17.92-38.4 38.4s17.92 38.4 38.4 38.4h89.6v89.6c0 20.48 17.92 38.4 38.4 38.4s38.4-17.92 38.4-38.4v-89.6h89.6c20.48 0 38.4-17.92 38.4-38.4s-15.36-38.4-38.4-38.4z" p-id="25578" fill="#dbdbdb"></path></svg>